<svg xmlns="http://www.w3.org/2000/svg" width="256" height="256" viewBox="0 0 100 100"><rect width="100" height="100" rx="20" fill="#131313"></rect><path fill="#ffffff" d="M69.58 69.80Q69.58 78.93 64.57 83.72Q59.57 88.50 51.10 88.50L51.10 88.50L48.90 88.50Q40.43 88.50 35.42 83.72Q30.42 78.93 30.42 69.80L30.42 69.80L30.42 30.20Q30.42 20.96 35.37 16.23Q40.32 11.50 48.90 11.50L48.90 11.50L51.10 11.50Q59.68 11.50 64.63 16.23Q69.58 20.96 69.58 30.20L69.58 30.20L69.58 69.80ZM60.23 28.11Q60.23 24.70 57.64 22.22Q55.06 19.75 51.10 19.75L51.10 19.75L48.90 19.75Q44.94 19.75 42.35 22.22Q39.77 24.70 39.77 28.11L39.77 28.11L39.77 57.92L60.23 28.11ZM39.77 71.89Q39.77 75.30 42.35 77.78Q44.94 80.25 48.90 80.25L48.90 80.25L51.10 80.25Q55.06 80.25 57.64 77.78Q60.23 75.30 60.23 71.89L60.23 71.89L60.23 42.19L39.77 71.89Z"></path></svg>