solid OpenSCAD_Model
  facet normal -0.9081431738250813 -0.418659737537428 0
    outer loop
      vertex -4.579482427436927 -2 2
      vertex -4.579482427436927 -2 6
      vertex -4.619397662556434 -1.913417161825449 2
    endloop
  endfacet
  facet normal -0.9081431738250813 -0.418659737537428 0
    outer loop
      vertex -4.619397662556434 -1.913417161825449 2
      vertex -4.579482427436927 -2 6
      vertex -4.619397662556434 -1.913417161825449 6
    endloop
  endfacet
  facet normal -0.9381913359224847 -0.3461170570774913 0
    outer loop
      vertex -4.619397662556434 -1.913417161825449 2
      vertex -4.619397662556434 -1.913417161825449 6
      vertex -4.755282581475767 -1.545084971874737 6
    endloop
  endfacet
  facet normal -0.9381913359224847 -0.3461170570774913 0
    outer loop
      vertex -4.619397662556434 -1.913417161825449 2
      vertex -4.755282581475767 -1.545084971874737 6
      vertex -4.755282581475767 -1.545084971874737 2
    endloop
  endfacet
  facet normal 0 0 1
    outer loop
      vertex -4.579482427436927 -2 6
      vertex -2.629305231718579 -1.9103020699505378 6
      vertex -4.619397662556434 -1.913417161825449 6
    endloop
  endfacet
  facet normal -0.962455236453647 -0.27144044986507554 0
    outer loop
      vertex -4.755282581475767 -1.545084971874737 2
      vertex -4.861849601988383 -1.167226819279527 6
      vertex -4.861849601988383 -1.167226819279527 2
    endloop
  endfacet
  facet normal -0.962455236453647 -0.27144044986507554 0
    outer loop
      vertex -4.755282581475767 -1.545084971874737 2
      vertex -4.755282581475767 -1.545084971874737 6
      vertex -4.861849601988383 -1.167226819279527 6
    endloop
  endfacet
  facet normal -0.9807852804032301 -0.1950903220161299 0
    outer loop
      vertex -4.861849601988383 -1.167226819279527 2
      vertex -4.861849601988383 -1.167226819279527 6
      vertex -4.938441702975689 -0.7821723252011543 6
    endloop
  endfacet
  facet normal 0 0 1
    outer loop
      vertex -4.579482427436927 -2 6
      vertex -2.558593085353723 -2 6
      vertex -2.629305231718579 -1.9103020699505378 6
    endloop
  endfacet
  facet normal 0 0 1
    outer loop
      vertex -4.619397662556434 -1.913417161825449 6
      vertex -2.629305231718579 -1.9103020699505378 6
      vertex -2.7710805341507996 -1.6981203353268337 6
    endloop
  endfacet
  facet normal 0 0 1
    outer loop
      vertex -4.619397662556434 -1.913417161825449 6
      vertex -2.895771203612196 -1.475469124153527 6
      vertex -3.002608480661682 -1.2437211551865417 6
    endloop
  endfacet
  facet normal 0 0 1
    outer loop
      vertex -4.619397662556434 -1.913417161825449 6
      vertex -2.7710805341507996 -1.6981203353268337 6
      vertex -2.895771203612196 -1.475469124153527 6
    endloop
  endfacet
  facet normal 0 0 1
    outer loop
      vertex -4.619397662556434 -1.913417161825449 6
      vertex -3.002608480661682 -1.2437211551865417 6
      vertex -3.090933677959249 -1.004305231718579 6
    endloop
  endfacet
  facet normal 0 0 1
    outer loop
      vertex -4.619397662556434 -1.913417161825449 6
      vertex -3.090933677959249 -1.004305231718579 6
      vertex -3.1602022412924486 -0.7586974325316925 6
    endloop
  endfacet
  facet normal 0 0 1
    outer loop
      vertex -4.619397662556434 -1.913417161825449 6
      vertex -3.1602022412924486 -0.7586974325316925 6
      vertex -3.209987106934198 -0.5084120113807503 6
    endloop
  endfacet
  facet normal -0.9807852804032301 -0.1950903220161299 0
    outer loop
      vertex -4.861849601988383 -1.167226819279527 2
      vertex -4.938441702975689 -0.7821723252011543 6
      vertex -4.938441702975689 -0.7821723252011543 2
    endloop
  endfacet
  facet normal -0.9930684569549266 -0.117537397457835 0
    outer loop
      vertex -4.938441702975689 -0.7821723252011543 2
      vertex -4.9845866686656395 -0.3922954786392247 6
      vertex -4.9845866686656395 -0.3922954786392247 2
    endloop
  endfacet
  facet normal 0 0 -1
    outer loop
      vertex -4.619397662556434 -1.913417161825449 2
      vertex -4.755282581475767 -1.545084971874737 2
      vertex -4.619397662556434 1.913417161825449 2
    endloop
  endfacet
  facet normal -0.9930684569549266 -0.117537397457835 0
    outer loop
      vertex -4.938441702975689 -0.7821723252011543 2
      vertex -4.938441702975689 -0.7821723252011543 6
      vertex -4.9845866686656395 -0.3922954786392247 6
    endloop
  endfacet
  facet normal 0 0 1
    outer loop
      vertex -4.755282581475767 -1.545084971874737 6
      vertex -4.861849601988383 1.167226819279527 6
      vertex -4.861849601988383 -1.167226819279527 6
    endloop
  endfacet
  facet normal 0 0 1
    outer loop
      vertex -4.619397662556434 -1.913417161825449 6
      vertex -4.755282581475767 1.545084971874737 6
      vertex -4.755282581475767 -1.545084971874737 6
    endloop
  endfacet
  facet normal 0 0 -1
    outer loop
      vertex -4.755282581475767 -1.545084971874737 2
      vertex -4.861849601988383 -1.167226819279527 2
      vertex -4.755282581475767 1.545084971874737 2
    endloop
  endfacet
  facet normal 0 0 -1
    outer loop
      vertex -4.861849601988383 -1.167226819279527 2
      vertex -4.938441702975689 -0.7821723252011543 2
      vertex -4.861849601988383 1.167226819279527 2
    endloop
  endfacet
  facet normal -0.999229036240723 -0.039259815759069616 0
    outer loop
      vertex -4.9845866686656395 -0.3922954786392247 2
      vertex -4.9845866686656395 -0.3922954786392247 6
      vertex -5 0 6
    endloop
  endfacet
  facet normal 0 0 -1
    outer loop
      vertex -4.938441702975689 -0.7821723252011543 2
      vertex -4.9845866686656395 -0.3922954786392247 2
      vertex -4.938441702975689 0.7821723252011543 2
    endloop
  endfacet
  facet normal -0.999229036240723 -0.039259815759069616 0
    outer loop
      vertex -4.9845866686656395 -0.3922954786392247 2
      vertex -5 0 6
      vertex -5 0 2
    endloop
  endfacet
  facet normal 0 0 1
    outer loop
      vertex -4.861849601988383 -1.167226819279527 6
      vertex -4.938441702975689 0.7821723252011543 6
      vertex -4.938441702975689 -0.7821723252011543 6
    endloop
  endfacet
  facet normal 0 0 1
    outer loop
      vertex -4.938441702975689 -0.7821723252011543 6
      vertex -4.9845866686656395 0.3922954786392247 6
      vertex -4.9845866686656395 -0.3922954786392247 6
    endloop
  endfacet
  facet normal 0 0 1
    outer loop
      vertex -4.619397662556434 -1.913417161825449 6
      vertex -3.239981334632666 -0.25499206111549605 6
      vertex -4.619397662556434 1.913417161825449 6
    endloop
  endfacet
  facet normal 0 0 1
    outer loop
      vertex -4.619397662556434 -1.913417161825449 6
      vertex -3.209987106934198 -0.5084120113807503 6
      vertex -3.239981334632666 -0.25499206111549605 6
    endloop
  endfacet
  facet normal 0 0 -1
    outer loop
      vertex -4.579482427436927 -2 2
      vertex -4.619397662556434 -1.913417161825449 2
      vertex 4.579482427436927 2 2
    endloop
  endfacet
  facet normal 0 0 -1
    outer loop
      vertex -4.9845866686656395 -0.3922954786392247 2
      vertex -5 0 2
      vertex -4.9845866686656395 0.3922954786392247 2
    endloop
  endfacet
  facet normal -0.999229036240723 0.039259815759069616 0
    outer loop
      vertex -5 0 2
      vertex -5 0 6
      vertex -4.9845866686656395 0.3922954786392247 6
    endloop
  endfacet
  facet normal 0 0 -1
    outer loop
      vertex -4.9845866686656395 -0.3922954786392247 2
      vertex -4.9845866686656395 0.3922954786392247 2
      vertex -4.938441702975689 0.7821723252011543 2
    endloop
  endfacet
  facet normal -0.999229036240723 0.039259815759069616 0
    outer loop
      vertex -5 0 2
      vertex -4.9845866686656395 0.3922954786392247 6
      vertex -4.9845866686656395 0.3922954786392247 2
    endloop
  endfacet
  facet normal 0 0 -1
    outer loop
      vertex -4.938441702975689 -0.7821723252011543 2
      vertex -4.938441702975689 0.7821723252011543 2
      vertex -4.861849601988383 1.167226819279527 2
    endloop
  endfacet
  facet normal 0 0 1
    outer loop
      vertex -4.9845866686656395 -0.3922954786392247 6
      vertex -4.9845866686656395 0.3922954786392247 6
      vertex -5 0 6
    endloop
  endfacet
  facet normal 0 0 1
    outer loop
      vertex -4.938441702975689 -0.7821723252011543 6
      vertex -4.938441702975689 0.7821723252011543 6
      vertex -4.9845866686656395 0.3922954786392247 6
    endloop
  endfacet
  facet normal 0 0 1
    outer loop
      vertex -4.861849601988383 -1.167226819279527 6
      vertex -4.861849601988383 1.167226819279527 6
      vertex -4.938441702975689 0.7821723252011543 6
    endloop
  endfacet
  facet normal 0 0 1
    outer loop
      vertex -4.755282581475767 -1.545084971874737 6
      vertex -4.755282581475767 1.545084971874737 6
      vertex -4.861849601988383 1.167226819279527 6
    endloop
  endfacet
  facet normal 0 0 -1
    outer loop
      vertex -4.861849601988383 -1.167226819279527 2
      vertex -4.861849601988383 1.167226819279527 2
      vertex -4.755282581475767 1.545084971874737 2
    endloop
  endfacet
  facet normal -0.9930684569549266 0.117537397457835 0
    outer loop
      vertex -4.9845866686656395 0.3922954786392247 2
      vertex -4.938441702975689 0.7821723252011543 6
      vertex -4.938441702975689 0.7821723252011543 2
    endloop
  endfacet
  facet normal 0 0 -1
    outer loop
      vertex -4.755282581475767 -1.545084971874737 2
      vertex -4.755282581475767 1.545084971874737 2
      vertex -4.619397662556434 1.913417161825449 2
    endloop
  endfacet
  facet normal -0.9930684569549266 0.117537397457835 0
    outer loop
      vertex -4.9845866686656395 0.3922954786392247 2
      vertex -4.9845866686656395 0.3922954786392247 6
      vertex -4.938441702975689 0.7821723252011543 6
    endloop
  endfacet
  facet normal -0.9807852804032301 0.1950903220161299 0
    outer loop
      vertex -4.938441702975689 0.7821723252011543 2
      vertex -4.938441702975689 0.7821723252011543 6
      vertex -4.861849601988383 1.167226819279527 6
    endloop
  endfacet
  facet normal 0 0 1
    outer loop
      vertex -4.619397662556434 -1.913417161825449 6
      vertex -4.619397662556434 1.913417161825449 6
      vertex -4.755282581475767 1.545084971874737 6
    endloop
  endfacet
  facet normal 0 0 1
    outer loop
      vertex -4.619397662556434 1.913417161825449 6
      vertex -3.239981334632666 -0.25499206111549605 6
      vertex -3.25 0 6
    endloop
  endfacet
  facet normal 0 0 1
    outer loop
      vertex -4.619397662556434 1.913417161825449 6
      vertex -3.25 0 6
      vertex -3.239981334632666 0.25499206111549605 6
    endloop
  endfacet
  facet normal 0 0 1
    outer loop
      vertex -4.619397662556434 1.913417161825449 6
      vertex -3.239981334632666 0.25499206111549605 6
      vertex -3.209987106934198 0.5084120113807503 6
    endloop
  endfacet
  facet normal -0.9807852804032301 0.1950903220161299 0
    outer loop
      vertex -4.938441702975689 0.7821723252011543 2
      vertex -4.861849601988383 1.167226819279527 6
      vertex -4.861849601988383 1.167226819279527 2
    endloop
  endfacet
  facet normal -0.962455236453647 0.27144044986507554 0
    outer loop
      vertex -4.861849601988383 1.167226819279527 2
      vertex -4.755282581475767 1.545084971874737 6
      vertex -4.755282581475767 1.545084971874737 2
    endloop
  endfacet
  facet normal -0.962455236453647 0.27144044986507554 0
    outer loop
      vertex -4.861849601988383 1.167226819279527 2
      vertex -4.861849601988383 1.167226819279527 6
      vertex -4.755282581475767 1.545084971874737 6
    endloop
  endfacet
  facet normal -0.9381913359224847 0.3461170570774913 0
    outer loop
      vertex -4.755282581475767 1.545084971874737 2
      vertex -4.755282581475767 1.545084971874737 6
      vertex -4.619397662556434 1.913417161825449 6
    endloop
  endfacet
  facet normal -0.9381913359224847 0.3461170570774913 0
    outer loop
      vertex -4.755282581475767 1.545084971874737 2
      vertex -4.619397662556434 1.913417161825449 6
      vertex -4.619397662556434 1.913417161825449 2
    endloop
  endfacet
  facet normal -0.9081431738250813 0.418659737537428 0
    outer loop
      vertex -4.619397662556434 1.913417161825449 2
      vertex -4.619397662556434 1.913417161825449 6
      vertex -4.579482427436927 2 2
    endloop
  endfacet
  facet normal -0.9081431738250813 0.418659737537428 0
    outer loop
      vertex -4.579482427436927 2 2
      vertex -4.619397662556434 1.913417161825449 6
      vertex -4.579482427436927 2 6
    endloop
  endfacet
  facet normal 0 0 1
    outer loop
      vertex -4.619397662556434 1.913417161825449 6
      vertex -3.002608480661682 1.2437211551865417 6
      vertex -4.579482427436927 2 6
    endloop
  endfacet
  facet normal 0 0 1
    outer loop
      vertex -4.619397662556434 1.913417161825449 6
      vertex -3.209987106934198 0.5084120113807503 6
      vertex -3.1602022412924486 0.7586974325316925 6
    endloop
  endfacet
  facet normal 0 0 1
    outer loop
      vertex -4.619397662556434 1.913417161825449 6
      vertex -3.1602022412924486 0.7586974325316925 6
      vertex -3.090933677959249 1.004305231718579 6
    endloop
  endfacet
  facet normal 0 0 1
    outer loop
      vertex -4.619397662556434 1.913417161825449 6
      vertex -3.090933677959249 1.004305231718579 6
      vertex -3.002608480661682 1.2437211551865417 6
    endloop
  endfacet
  facet normal 0 0 1
    outer loop
      vertex -4.579482427436927 2 6
      vertex -3.002608480661682 1.2437211551865417 6
      vertex -2.895771203612196 1.475469124153527 6
    endloop
  endfacet
  facet normal 0 0 1
    outer loop
      vertex -4.579482427436927 2 6
      vertex -2.895771203612196 1.475469124153527 6
      vertex -2.7710805341507996 1.6981203353268337 6
    endloop
  endfacet
  facet normal 0 0 1
    outer loop
      vertex -4.579482427436927 2 6
      vertex -2.7710805341507996 1.6981203353268337 6
      vertex -2.629305231718579 1.9103020699505378 6
    endloop
  endfacet
  facet normal 0 0 1
    outer loop
      vertex -4.579482427436927 2 6
      vertex -2.629305231718579 1.9103020699505378 6
      vertex -2.558593085353723 2 6
    endloop
  endfacet
  facet normal 0 0 -1
    outer loop
      vertex -4.619397662556434 -1.913417161825449 2
      vertex -4.619397662556434 1.913417161825449 2
      vertex 4.579482427436927 2 2
    endloop
  endfacet
  facet normal 0 0 -1
    outer loop
      vertex -4.619397662556434 1.913417161825449 2
      vertex -4.579482427436927 2 2
      vertex 4.579482427436927 2 2
    endloop
  endfacet
  facet normal 0 0 -1
    outer loop
      vertex -4.579482427436927 -2 2
      vertex 4.619397662556434 -1.913417161825449 2
      vertex 4.579482427436927 -2 2
    endloop
  endfacet
  facet normal 0 0 -1
    outer loop
      vertex -4.579482427436927 -2 2
      vertex 4.619397662556434 1.913417161825449 2
      vertex 4.619397662556434 -1.913417161825449 2
    endloop
  endfacet
  facet normal 0 0 1
    outer loop
      vertex 4.579482427436927 -2 6
      vertex 2.629305231718579 -1.9103020699505378 6
      vertex 2.558593085353723 -2 6
    endloop
  endfacet
  facet normal 0 0 1
    outer loop
      vertex 4.579482427436927 -2 6
      vertex 2.7710805341507996 -1.6981203353268337 6
      vertex 2.629305231718579 -1.9103020699505378 6
    endloop
  endfacet
  facet normal 0 0 1
    outer loop
      vertex 4.579482427436927 -2 6
      vertex 2.895771203612196 -1.475469124153527 6
      vertex 2.7710805341507996 -1.6981203353268337 6
    endloop
  endfacet
  facet normal 0 0 1
    outer loop
      vertex 4.579482427436927 -2 6
      vertex 3.002608480661682 -1.2437211551865417 6
      vertex 2.895771203612196 -1.475469124153527 6
    endloop
  endfacet
  facet normal 0 0 1
    outer loop
      vertex 4.619397662556434 -1.913417161825449 6
      vertex 3.090933677959249 -1.004305231718579 6
      vertex 3.002608480661682 -1.2437211551865417 6
    endloop
  endfacet
  facet normal 0 0 1
    outer loop
      vertex 4.619397662556434 -1.913417161825449 6
      vertex 3.1602022412924486 -0.7586974325316925 6
      vertex 3.090933677959249 -1.004305231718579 6
    endloop
  endfacet
  facet normal 0 0 1
    outer loop
      vertex 4.619397662556434 -1.913417161825449 6
      vertex 3.209987106934198 -0.5084120113807503 6
      vertex 3.1602022412924486 -0.7586974325316925 6
    endloop
  endfacet
  facet normal 0.9081431738250813 -0.418659737537428 0
    outer loop
      vertex 4.579482427436927 -2 2
      vertex 4.619397662556434 -1.913417161825449 2
      vertex 4.619397662556434 -1.913417161825449 6
    endloop
  endfacet
  facet normal 0.9381913359224847 -0.3461170570774913 0
    outer loop
      vertex 4.619397662556434 -1.913417161825449 2
      vertex 4.755282581475767 -1.545084971874737 2
      vertex 4.619397662556434 -1.913417161825449 6
    endloop
  endfacet
  facet normal 0.9081431738250813 -0.418659737537428 0
    outer loop
      vertex 4.579482427436927 -2 2
      vertex 4.619397662556434 -1.913417161825449 6
      vertex 4.579482427436927 -2 6
    endloop
  endfacet
  facet normal 0.9381913359224847 -0.3461170570774913 0
    outer loop
      vertex 4.755282581475767 -1.545084971874737 2
      vertex 4.755282581475767 -1.545084971874737 6
      vertex 4.619397662556434 -1.913417161825449 6
    endloop
  endfacet
  facet normal 0 0 1
    outer loop
      vertex 4.579482427436927 -2 6
      vertex 4.619397662556434 -1.913417161825449 6
      vertex 3.002608480661682 -1.2437211551865417 6
    endloop
  endfacet
  facet normal 0.962455236453647 -0.27144044986507554 0
    outer loop
      vertex 4.755282581475767 -1.545084971874737 2
      vertex 4.861849601988383 -1.167226819279527 2
      vertex 4.755282581475767 -1.545084971874737 6
    endloop
  endfacet
  facet normal 0.962455236453647 -0.27144044986507554 0
    outer loop
      vertex 4.755282581475767 -1.545084971874737 6
      vertex 4.861849601988383 -1.167226819279527 2
      vertex 4.861849601988383 -1.167226819279527 6
    endloop
  endfacet
  facet normal 0.9807852804032301 -0.1950903220161299 0
    outer loop
      vertex 4.861849601988383 -1.167226819279527 2
      vertex 4.938441702975689 -0.7821723252011543 2
      vertex 4.861849601988383 -1.167226819279527 6
    endloop
  endfacet
  facet normal 0 0 1
    outer loop
      vertex 4.619397662556434 -1.913417161825449 6
      vertex 3.239981334632666 -0.25499206111549605 6
      vertex 3.209987106934198 -0.5084120113807503 6
    endloop
  endfacet
  facet normal 0 0 1
    outer loop
      vertex 4.619397662556434 -1.913417161825449 6
      vertex 3.25 0 6
      vertex 3.239981334632666 -0.25499206111549605 6
    endloop
  endfacet
  facet normal 0 0 1
    outer loop
      vertex 4.619397662556434 -1.913417161825449 6
      vertex 3.239981334632666 0.25499206111549605 6
      vertex 3.25 0 6
    endloop
  endfacet
  facet normal 0.9807852804032301 -0.1950903220161299 0
    outer loop
      vertex 4.861849601988383 -1.167226819279527 6
      vertex 4.938441702975689 -0.7821723252011543 2
      vertex 4.938441702975689 -0.7821723252011543 6
    endloop
  endfacet
  facet normal 0 0 -1
    outer loop
      vertex 4.619397662556434 -1.913417161825449 2
      vertex 4.755282581475767 1.545084971874737 2
      vertex 4.755282581475767 -1.545084971874737 2
    endloop
  endfacet
  facet normal 0.9930684569549266 -0.117537397457835 0
    outer loop
      vertex 4.938441702975689 -0.7821723252011543 2
      vertex 4.9845866686656395 -0.3922954786392247 2
      vertex 4.938441702975689 -0.7821723252011543 6
    endloop
  endfacet
  facet normal 0 0 -1
    outer loop
      vertex 4.755282581475767 -1.545084971874737 2
      vertex 4.861849601988383 1.167226819279527 2
      vertex 4.861849601988383 -1.167226819279527 2
    endloop
  endfacet
  facet normal 0.9930684569549266 -0.117537397457835 0
    outer loop
      vertex 4.938441702975689 -0.7821723252011543 6
      vertex 4.9845866686656395 -0.3922954786392247 2
      vertex 4.9845866686656395 -0.3922954786392247 6
    endloop
  endfacet
  facet normal 0 0 1
    outer loop
      vertex 4.619397662556434 -1.913417161825449 6
      vertex 4.755282581475767 -1.545084971874737 6
      vertex 4.619397662556434 1.913417161825449 6
    endloop
  endfacet
  facet normal 0 0 -1
    outer loop
      vertex 4.861849601988383 -1.167226819279527 2
      vertex 4.938441702975689 0.7821723252011543 2
      vertex 4.938441702975689 -0.7821723252011543 2
    endloop
  endfacet
  facet normal 0 0 -1
    outer loop
      vertex 4.938441702975689 -0.7821723252011543 2
      vertex 4.9845866686656395 0.3922954786392247 2
      vertex 4.9845866686656395 -0.3922954786392247 2
    endloop
  endfacet
  facet normal 0.999229036240723 -0.039259815759069616 0
    outer loop
      vertex 4.9845866686656395 -0.3922954786392247 2
      vertex 5 0 2
      vertex 4.9845866686656395 -0.3922954786392247 6
    endloop
  endfacet
  facet normal 0.999229036240723 -0.039259815759069616 0
    outer loop
      vertex 4.9845866686656395 -0.3922954786392247 6
      vertex 5 0 2
      vertex 5 0 6
    endloop
  endfacet
  facet normal 0 0 1
    outer loop
      vertex 4.755282581475767 -1.545084971874737 6
      vertex 4.861849601988383 -1.167226819279527 6
      vertex 4.755282581475767 1.545084971874737 6
    endloop
  endfacet
  facet normal 0 0 1
    outer loop
      vertex 4.861849601988383 -1.167226819279527 6
      vertex 4.938441702975689 -0.7821723252011543 6
      vertex 4.861849601988383 1.167226819279527 6
    endloop
  endfacet
  facet normal 0 0 1
    outer loop
      vertex 4.938441702975689 -0.7821723252011543 6
      vertex 4.9845866686656395 -0.3922954786392247 6
      vertex 4.938441702975689 0.7821723252011543 6
    endloop
  endfacet
  facet normal 0 0 -1
    outer loop
      vertex -4.579482427436927 -2 2
      vertex 4.579482427436927 2 2
      vertex 4.619397662556434 1.913417161825449 2
    endloop
  endfacet
  facet normal 0 0 1
    outer loop
      vertex 4.619397662556434 1.913417161825449 6
      vertex 3.209987106934198 0.5084120113807503 6
      vertex 3.239981334632666 0.25499206111549605 6
    endloop
  endfacet
  facet normal 0 0 -1
    outer loop
      vertex 4.9845866686656395 -0.3922954786392247 2
      vertex 4.9845866686656395 0.3922954786392247 2
      vertex 5 0 2
    endloop
  endfacet
  facet normal 0 0 -1
    outer loop
      vertex 4.938441702975689 -0.7821723252011543 2
      vertex 4.938441702975689 0.7821723252011543 2
      vertex 4.9845866686656395 0.3922954786392247 2
    endloop
  endfacet
  facet normal 0.999229036240723 0.039259815759069616 0
    outer loop
      vertex 5 0 2
      vertex 4.9845866686656395 0.3922954786392247 2
      vertex 5 0 6
    endloop
  endfacet
  facet normal 0 0 -1
    outer loop
      vertex 4.861849601988383 -1.167226819279527 2
      vertex 4.861849601988383 1.167226819279527 2
      vertex 4.938441702975689 0.7821723252011543 2
    endloop
  endfacet
  facet normal 0 0 -1
    outer loop
      vertex 4.755282581475767 -1.545084971874737 2
      vertex 4.755282581475767 1.545084971874737 2
      vertex 4.861849601988383 1.167226819279527 2
    endloop
  endfacet
  facet normal 0.999229036240723 0.039259815759069616 0
    outer loop
      vertex 4.9845866686656395 0.3922954786392247 2
      vertex 4.9845866686656395 0.3922954786392247 6
      vertex 5 0 6
    endloop
  endfacet
  facet normal 0 0 1
    outer loop
      vertex 4.619397662556434 -1.913417161825449 6
      vertex 4.619397662556434 1.913417161825449 6
      vertex 3.239981334632666 0.25499206111549605 6
    endloop
  endfacet
  facet normal 0 0 1
    outer loop
      vertex 4.9845866686656395 -0.3922954786392247 6
      vertex 5 0 6
      vertex 4.9845866686656395 0.3922954786392247 6
    endloop
  endfacet
  facet normal 0 0 1
    outer loop
      vertex 4.9845866686656395 -0.3922954786392247 6
      vertex 4.9845866686656395 0.3922954786392247 6
      vertex 4.938441702975689 0.7821723252011543 6
    endloop
  endfacet
  facet normal 0 0 1
    outer loop
      vertex 4.938441702975689 -0.7821723252011543 6
      vertex 4.938441702975689 0.7821723252011543 6
      vertex 4.861849601988383 1.167226819279527 6
    endloop
  endfacet
  facet normal 0 0 -1
    outer loop
      vertex 4.619397662556434 -1.913417161825449 2
      vertex 4.619397662556434 1.913417161825449 2
      vertex 4.755282581475767 1.545084971874737 2
    endloop
  endfacet
  facet normal 0.9930684569549266 0.117537397457835 0
    outer loop
      vertex 4.9845866686656395 0.3922954786392247 2
      vertex 4.938441702975689 0.7821723252011543 2
      vertex 4.9845866686656395 0.3922954786392247 6
    endloop
  endfacet
  facet normal 0.9930684569549266 0.117537397457835 0
    outer loop
      vertex 4.9845866686656395 0.3922954786392247 6
      vertex 4.938441702975689 0.7821723252011543 2
      vertex 4.938441702975689 0.7821723252011543 6
    endloop
  endfacet
  facet normal 0.9807852804032301 0.1950903220161299 0
    outer loop
      vertex 4.938441702975689 0.7821723252011543 2
      vertex 4.861849601988383 1.167226819279527 2
      vertex 4.938441702975689 0.7821723252011543 6
    endloop
  endfacet
  facet normal 0 0 1
    outer loop
      vertex 4.755282581475767 -1.545084971874737 6
      vertex 4.755282581475767 1.545084971874737 6
      vertex 4.619397662556434 1.913417161825449 6
    endloop
  endfacet
  facet normal 0 0 1
    outer loop
      vertex 4.861849601988383 -1.167226819279527 6
      vertex 4.861849601988383 1.167226819279527 6
      vertex 4.755282581475767 1.545084971874737 6
    endloop
  endfacet
  facet normal 0 0 1
    outer loop
      vertex 4.619397662556434 1.913417161825449 6
      vertex 3.1602022412924486 0.7586974325316925 6
      vertex 3.209987106934198 0.5084120113807503 6
    endloop
  endfacet
  facet normal 0 0 1
    outer loop
      vertex 4.619397662556434 1.913417161825449 6
      vertex 3.090933677959249 1.004305231718579 6
      vertex 3.1602022412924486 0.7586974325316925 6
    endloop
  endfacet
  facet normal 0 0 1
    outer loop
      vertex 4.619397662556434 1.913417161825449 6
      vertex 3.002608480661682 1.2437211551865417 6
      vertex 3.090933677959249 1.004305231718579 6
    endloop
  endfacet
  facet normal 0 0 1
    outer loop
      vertex 4.619397662556434 1.913417161825449 6
      vertex 2.7710805341507996 1.6981203353268337 6
      vertex 2.895771203612196 1.475469124153527 6
    endloop
  endfacet
  facet normal 0 0 1
    outer loop
      vertex 4.619397662556434 1.913417161825449 6
      vertex 2.895771203612196 1.475469124153527 6
      vertex 3.002608480661682 1.2437211551865417 6
    endloop
  endfacet
  facet normal 0 0 1
    outer loop
      vertex 4.619397662556434 1.913417161825449 6
      vertex 2.629305231718579 1.9103020699505378 6
      vertex 2.7710805341507996 1.6981203353268337 6
    endloop
  endfacet
  facet normal 0 0 1
    outer loop
      vertex 4.579482427436927 2 6
      vertex 2.558593085353723 2 6
      vertex 2.629305231718579 1.9103020699505378 6
    endloop
  endfacet
  facet normal 0.9807852804032301 0.1950903220161299 0
    outer loop
      vertex 4.938441702975689 0.7821723252011543 6
      vertex 4.861849601988383 1.167226819279527 2
      vertex 4.861849601988383 1.167226819279527 6
    endloop
  endfacet
  facet normal 0.962455236453647 0.27144044986507554 0
    outer loop
      vertex 4.861849601988383 1.167226819279527 2
      vertex 4.755282581475767 1.545084971874737 2
      vertex 4.861849601988383 1.167226819279527 6
    endloop
  endfacet
  facet normal 0.962455236453647 0.27144044986507554 0
    outer loop
      vertex 4.861849601988383 1.167226819279527 6
      vertex 4.755282581475767 1.545084971874737 2
      vertex 4.755282581475767 1.545084971874737 6
    endloop
  endfacet
  facet normal 0.9381913359224847 0.3461170570774913 0
    outer loop
      vertex 4.755282581475767 1.545084971874737 2
      vertex 4.619397662556434 1.913417161825449 2
      vertex 4.755282581475767 1.545084971874737 6
    endloop
  endfacet
  facet normal 0.9081431738250813 0.418659737537428 0
    outer loop
      vertex 4.619397662556434 1.913417161825449 2
      vertex 4.579482427436927 2 2
      vertex 4.579482427436927 2 6
    endloop
  endfacet
  facet normal 0.9381913359224847 0.3461170570774913 0
    outer loop
      vertex 4.619397662556434 1.913417161825449 2
      vertex 4.619397662556434 1.913417161825449 6
      vertex 4.755282581475767 1.545084971874737 6
    endloop
  endfacet
  facet normal 0.9081431738250813 0.418659737537428 0
    outer loop
      vertex 4.619397662556434 1.913417161825449 2
      vertex 4.579482427436927 2 6
      vertex 4.619397662556434 1.913417161825449 6
    endloop
  endfacet
  facet normal 0 0 1
    outer loop
      vertex 4.619397662556434 1.913417161825449 6
      vertex 4.579482427436927 2 6
      vertex 2.629305231718579 1.9103020699505378 6
    endloop
  endfacet
  facet normal 0 -1 0
    outer loop
      vertex -4.579482427436927 -2 2
      vertex 4.579482427436927 -2 2
      vertex -4.579482427436927 -2 6
    endloop
  endfacet
  facet normal 0 -1 0
    outer loop
      vertex -4.579482427436927 -2 6
      vertex 4.579482427436927 -2 2
      vertex -2.558593085353723 -2 6
    endloop
  endfacet
  facet normal 0 1 0
    outer loop
      vertex -4.579482427436927 2 6
      vertex -2.558593085353723 2 6
      vertex -4.579482427436927 2 2
    endloop
  endfacet
  facet normal 0 1 0
    outer loop
      vertex -2.558593085353723 2 6
      vertex 2.558593085353723 2 6
      vertex -4.579482427436927 2 2
    endloop
  endfacet
  facet normal 0 -1 0
    outer loop
      vertex 4.579482427436927 -2 2
      vertex 2.558593085353723 -2 6
      vertex -2.558593085353723 -2 6
    endloop
  endfacet
  facet normal 0 -1 0
    outer loop
      vertex 4.579482427436927 -2 6
      vertex 2.558593085353723 -2 6
      vertex 4.579482427436927 -2 2
    endloop
  endfacet
  facet normal 0 1 0
    outer loop
      vertex -4.579482427436927 2 2
      vertex 2.558593085353723 2 6
      vertex 4.579482427436927 2 6
    endloop
  endfacet
  facet normal 0 1 0
    outer loop
      vertex -4.579482427436927 2 2
      vertex 4.579482427436927 2 6
      vertex 4.579482427436927 2 2
    endloop
  endfacet
  facet normal -0.7853169308807448 -0.6190939493098341 0
    outer loop
      vertex -2.629305231718579 -1.9103020699505378 6
      vertex -2.558593085353723 -2 6
      vertex -2.558593085353723 -2 8
    endloop
  endfacet
  facet normal -0.8314696123025456 -0.555570233019602 0
    outer loop
      vertex -2.629305231718579 -1.9103020699505378 6
      vertex -2.7710805341507996 -1.6981203353268337 8
      vertex -2.7710805341507996 -1.6981203353268337 6
    endloop
  endfacet
  facet normal -0.7853169308807448 -0.6190939493098341 0
    outer loop
      vertex -2.629305231718579 -1.9103020699505378 8
      vertex -2.629305231718579 -1.9103020699505378 6
      vertex -2.558593085353723 -2 8
    endloop
  endfacet
  facet normal -0.8314696123025456 -0.555570233019602 0
    outer loop
      vertex -2.629305231718579 -1.9103020699505378 6
      vertex -2.629305231718579 -1.9103020699505378 8
      vertex -2.7710805341507996 -1.6981203353268337 8
    endloop
  endfacet
  facet normal -0.8724960070727964 -0.48862124149695624 0
    outer loop
      vertex -2.7710805341507996 -1.6981203353268337 6
      vertex -2.895771203612196 -1.475469124153527 8
      vertex -2.895771203612196 -1.475469124153527 6
    endloop
  endfacet
  facet normal -0.8724960070727964 -0.48862124149695624 0
    outer loop
      vertex -2.7710805341507996 -1.6981203353268337 6
      vertex -2.7710805341507996 -1.6981203353268337 8
      vertex -2.895771203612196 -1.475469124153527 8
    endloop
  endfacet
  facet normal -0.9081431738250817 -0.4186597375374272 0
    outer loop
      vertex -2.895771203612196 -1.475469124153527 6
      vertex -3.002608480661682 -1.2437211551865417 8
      vertex -3.002608480661682 -1.2437211551865417 6
    endloop
  endfacet
  facet normal -0.9081431738250817 -0.4186597375374272 0
    outer loop
      vertex -2.895771203612196 -1.475469124153527 6
      vertex -2.895771203612196 -1.475469124153527 8
      vertex -3.002608480661682 -1.2437211551865417 8
    endloop
  endfacet
  facet normal -0.9381913359224845 -0.3461170570774922 0
    outer loop
      vertex -3.002608480661682 -1.2437211551865417 6
      vertex -3.090933677959249 -1.004305231718579 8
      vertex -3.090933677959249 -1.004305231718579 6
    endloop
  endfacet
  facet normal -0.9381913359224845 -0.3461170570774922 0
    outer loop
      vertex -3.002608480661682 -1.2437211551865417 8
      vertex -3.090933677959249 -1.004305231718579 8
      vertex -3.002608480661682 -1.2437211551865417 6
    endloop
  endfacet
  facet normal -0.9807852804032301 -0.19509032201613047 0
    outer loop
      vertex -3.1602022412924486 -0.7586974325316925 6
      vertex -3.209987106934198 -0.5084120113807503 8
      vertex -3.209987106934198 -0.5084120113807503 6
    endloop
  endfacet
  facet normal -0.9807852804032301 -0.19509032201613047 0
    outer loop
      vertex -3.1602022412924486 -0.7586974325316925 6
      vertex -3.1602022412924486 -0.7586974325316925 8
      vertex -3.209987106934198 -0.5084120113807503 8
    endloop
  endfacet
  facet normal -0.9624552364536473 -0.271440449865074 0
    outer loop
      vertex -3.090933677959249 -1.004305231718579 6
      vertex -3.1602022412924486 -0.7586974325316925 8
      vertex -3.1602022412924486 -0.7586974325316925 6
    endloop
  endfacet
  facet normal -0.9624552364536473 -0.271440449865074 0
    outer loop
      vertex -3.090933677959249 -1.004305231718579 6
      vertex -3.090933677959249 -1.004305231718579 8
      vertex -3.1602022412924486 -0.7586974325316925 8
    endloop
  endfacet
  facet normal -0.9930684569549265 -0.11753739745783617 0
    outer loop
      vertex -3.209987106934198 -0.5084120113807503 6
      vertex -3.239981334632666 -0.25499206111549605 8
      vertex -3.239981334632666 -0.25499206111549605 6
    endloop
  endfacet
  facet normal -0.9930684569549265 -0.11753739745783617 0
    outer loop
      vertex -3.209987106934198 -0.5084120113807503 6
      vertex -3.209987106934198 -0.5084120113807503 8
      vertex -3.239981334632666 -0.25499206111549605 8
    endloop
  endfacet
  facet normal -0.999229036240723 -0.039259815759069096 0
    outer loop
      vertex -3.239981334632666 -0.25499206111549605 6
      vertex -3.25 0 8
      vertex -3.25 0 6
    endloop
  endfacet
  facet normal -0.999229036240723 -0.039259815759069096 0
    outer loop
      vertex -3.239981334632666 -0.25499206111549605 6
      vertex -3.239981334632666 -0.25499206111549605 8
      vertex -3.25 0 8
    endloop
  endfacet
  facet normal -0.999229036240723 0.039259815759069096 0
    outer loop
      vertex -3.25 0 6
      vertex -3.239981334632666 0.25499206111549605 8
      vertex -3.239981334632666 0.25499206111549605 6
    endloop
  endfacet
  facet normal -0.999229036240723 0.039259815759069096 0
    outer loop
      vertex -3.25 0 6
      vertex -3.25 0 8
      vertex -3.239981334632666 0.25499206111549605 8
    endloop
  endfacet
  facet normal -0.9930684569549265 0.11753739745783617 0
    outer loop
      vertex -3.239981334632666 0.25499206111549605 6
      vertex -3.209987106934198 0.5084120113807503 8
      vertex -3.209987106934198 0.5084120113807503 6
    endloop
  endfacet
  facet normal -0.9930684569549265 0.11753739745783617 0
    outer loop
      vertex -3.239981334632666 0.25499206111549605 6
      vertex -3.239981334632666 0.25499206111549605 8
      vertex -3.209987106934198 0.5084120113807503 8
    endloop
  endfacet
  facet normal -0.9807852804032301 0.19509032201613047 0
    outer loop
      vertex -3.209987106934198 0.5084120113807503 6
      vertex -3.1602022412924486 0.7586974325316925 8
      vertex -3.1602022412924486 0.7586974325316925 6
    endloop
  endfacet
  facet normal -0.9807852804032301 0.19509032201613047 0
    outer loop
      vertex -3.209987106934198 0.5084120113807503 6
      vertex -3.209987106934198 0.5084120113807503 8
      vertex -3.1602022412924486 0.7586974325316925 8
    endloop
  endfacet
  facet normal -0.9624552364536473 0.271440449865074 0
    outer loop
      vertex -3.1602022412924486 0.7586974325316925 6
      vertex -3.090933677959249 1.004305231718579 8
      vertex -3.090933677959249 1.004305231718579 6
    endloop
  endfacet
  facet normal -0.9624552364536473 0.271440449865074 0
    outer loop
      vertex -3.1602022412924486 0.7586974325316925 6
      vertex -3.1602022412924486 0.7586974325316925 8
      vertex -3.090933677959249 1.004305231718579 8
    endloop
  endfacet
  facet normal -0.9381913359224845 0.3461170570774922 0
    outer loop
      vertex -3.002608480661682 1.2437211551865417 6
      vertex -3.090933677959249 1.004305231718579 6
      vertex -3.002608480661682 1.2437211551865417 8
    endloop
  endfacet
  facet normal -0.9381913359224845 0.3461170570774922 0
    outer loop
      vertex -3.090933677959249 1.004305231718579 6
      vertex -3.090933677959249 1.004305231718579 8
      vertex -3.002608480661682 1.2437211551865417 8
    endloop
  endfacet
  facet normal -0.9081431738250817 0.4186597375374272 0
    outer loop
      vertex -2.895771203612196 1.475469124153527 6
      vertex -3.002608480661682 1.2437211551865417 6
      vertex -2.895771203612196 1.475469124153527 8
    endloop
  endfacet
  facet normal -0.9081431738250817 0.4186597375374272 0
    outer loop
      vertex -3.002608480661682 1.2437211551865417 6
      vertex -3.002608480661682 1.2437211551865417 8
      vertex -2.895771203612196 1.475469124153527 8
    endloop
  endfacet
  facet normal -0.8724960070727964 0.48862124149695624 0
    outer loop
      vertex -2.7710805341507996 1.6981203353268337 8
      vertex -2.7710805341507996 1.6981203353268337 6
      vertex -2.895771203612196 1.475469124153527 6
    endloop
  endfacet
  facet normal -0.8724960070727964 0.48862124149695624 0
    outer loop
      vertex -2.7710805341507996 1.6981203353268337 8
      vertex -2.895771203612196 1.475469124153527 6
      vertex -2.895771203612196 1.475469124153527 8
    endloop
  endfacet
  facet normal -0.8314696123025456 0.555570233019602 0
    outer loop
      vertex -2.629305231718579 1.9103020699505378 8
      vertex -2.629305231718579 1.9103020699505378 6
      vertex -2.7710805341507996 1.6981203353268337 6
    endloop
  endfacet
  facet normal -0.7853169308807448 0.6190939493098341 0
    outer loop
      vertex -2.558593085353723 2 6
      vertex -2.629305231718579 1.9103020699505378 6
      vertex -2.629305231718579 1.9103020699505378 8
    endloop
  endfacet
  facet normal -0.8314696123025456 0.555570233019602 0
    outer loop
      vertex -2.629305231718579 1.9103020699505378 8
      vertex -2.7710805341507996 1.6981203353268337 6
      vertex -2.7710805341507996 1.6981203353268337 8
    endloop
  endfacet
  facet normal -0.7853169308807448 0.6190939493098341 0
    outer loop
      vertex -2.629305231718579 1.9103020699505378 8
      vertex -2.558593085353723 2 8
      vertex -2.558593085353723 2 6
    endloop
  endfacet
  facet normal 0.7853169308807448 -0.6190939493098341 0
    outer loop
      vertex 2.558593085353723 -2 6
      vertex 2.629305231718579 -1.9103020699505378 6
      vertex 2.629305231718579 -1.9103020699505378 8
    endloop
  endfacet
  facet normal 0.8314696123025456 -0.555570233019602 0
    outer loop
      vertex 2.629305231718579 -1.9103020699505378 6
      vertex 2.7710805341507996 -1.6981203353268337 6
      vertex 2.629305231718579 -1.9103020699505378 8
    endloop
  endfacet
  facet normal 0.7853169308807448 -0.6190939493098341 0
    outer loop
      vertex 2.558593085353723 -2 8
      vertex 2.558593085353723 -2 6
      vertex 2.629305231718579 -1.9103020699505378 8
    endloop
  endfacet
  facet normal 0.8314696123025456 -0.555570233019602 0
    outer loop
      vertex 2.7710805341507996 -1.6981203353268337 6
      vertex 2.7710805341507996 -1.6981203353268337 8
      vertex 2.629305231718579 -1.9103020699505378 8
    endloop
  endfacet
  facet normal 0.8724960070727964 -0.48862124149695624 0
    outer loop
      vertex 2.895771203612196 -1.475469124153527 6
      vertex 2.7710805341507996 -1.6981203353268337 8
      vertex 2.7710805341507996 -1.6981203353268337 6
    endloop
  endfacet
  facet normal 0.8724960070727964 -0.48862124149695624 0
    outer loop
      vertex 2.895771203612196 -1.475469124153527 6
      vertex 2.895771203612196 -1.475469124153527 8
      vertex 2.7710805341507996 -1.6981203353268337 8
    endloop
  endfacet
  facet normal 0.9081431738250817 -0.4186597375374272 0
    outer loop
      vertex 2.895771203612196 -1.475469124153527 6
      vertex 3.002608480661682 -1.2437211551865417 6
      vertex 2.895771203612196 -1.475469124153527 8
    endloop
  endfacet
  facet normal 0.9081431738250817 -0.4186597375374272 0
    outer loop
      vertex 3.002608480661682 -1.2437211551865417 6
      vertex 3.002608480661682 -1.2437211551865417 8
      vertex 2.895771203612196 -1.475469124153527 8
    endloop
  endfacet
  facet normal 0.9381913359224845 -0.3461170570774922 0
    outer loop
      vertex 3.002608480661682 -1.2437211551865417 6
      vertex 3.090933677959249 -1.004305231718579 6
      vertex 3.002608480661682 -1.2437211551865417 8
    endloop
  endfacet
  facet normal 0.9381913359224845 -0.3461170570774922 0
    outer loop
      vertex 3.002608480661682 -1.2437211551865417 8
      vertex 3.090933677959249 -1.004305231718579 6
      vertex 3.090933677959249 -1.004305231718579 8
    endloop
  endfacet
  facet normal 0.9624552364536473 -0.271440449865074 0
    outer loop
      vertex 3.090933677959249 -1.004305231718579 8
      vertex 3.090933677959249 -1.004305231718579 6
      vertex 3.1602022412924486 -0.7586974325316925 6
    endloop
  endfacet
  facet normal 0.9624552364536473 -0.271440449865074 0
    outer loop
      vertex 3.090933677959249 -1.004305231718579 8
      vertex 3.1602022412924486 -0.7586974325316925 6
      vertex 3.1602022412924486 -0.7586974325316925 8
    endloop
  endfacet
  facet normal 0.9807852804032301 -0.19509032201613047 0
    outer loop
      vertex 3.1602022412924486 -0.7586974325316925 8
      vertex 3.1602022412924486 -0.7586974325316925 6
      vertex 3.209987106934198 -0.5084120113807503 6
    endloop
  endfacet
  facet normal 0.9807852804032301 -0.19509032201613047 0
    outer loop
      vertex 3.1602022412924486 -0.7586974325316925 8
      vertex 3.209987106934198 -0.5084120113807503 6
      vertex 3.209987106934198 -0.5084120113807503 8
    endloop
  endfacet
  facet normal 0.9930684569549265 -0.11753739745783617 0
    outer loop
      vertex 3.209987106934198 -0.5084120113807503 8
      vertex 3.209987106934198 -0.5084120113807503 6
      vertex 3.239981334632666 -0.25499206111549605 6
    endloop
  endfacet
  facet normal 0.9930684569549265 -0.11753739745783617 0
    outer loop
      vertex 3.209987106934198 -0.5084120113807503 8
      vertex 3.239981334632666 -0.25499206111549605 6
      vertex 3.239981334632666 -0.25499206111549605 8
    endloop
  endfacet
  facet normal 0.999229036240723 -0.039259815759069096 0
    outer loop
      vertex 3.239981334632666 -0.25499206111549605 6
      vertex 3.25 0 6
      vertex 3.239981334632666 -0.25499206111549605 8
    endloop
  endfacet
  facet normal 0.999229036240723 -0.039259815759069096 0
    outer loop
      vertex 3.239981334632666 -0.25499206111549605 8
      vertex 3.25 0 6
      vertex 3.25 0 8
    endloop
  endfacet
  facet normal 0.999229036240723 0.039259815759069096 0
    outer loop
      vertex 3.25 0 6
      vertex 3.239981334632666 0.25499206111549605 6
      vertex 3.25 0 8
    endloop
  endfacet
  facet normal 0.999229036240723 0.039259815759069096 0
    outer loop
      vertex 3.25 0 8
      vertex 3.239981334632666 0.25499206111549605 6
      vertex 3.239981334632666 0.25499206111549605 8
    endloop
  endfacet
  facet normal 0.9930684569549265 0.11753739745783617 0
    outer loop
      vertex 3.239981334632666 0.25499206111549605 8
      vertex 3.239981334632666 0.25499206111549605 6
      vertex 3.209987106934198 0.5084120113807503 6
    endloop
  endfacet
  facet normal 0.9930684569549265 0.11753739745783617 0
    outer loop
      vertex 3.239981334632666 0.25499206111549605 8
      vertex 3.209987106934198 0.5084120113807503 6
      vertex 3.209987106934198 0.5084120113807503 8
    endloop
  endfacet
  facet normal 0.9624552364536473 0.271440449865074 0
    outer loop
      vertex 3.1602022412924486 0.7586974325316925 8
      vertex 3.1602022412924486 0.7586974325316925 6
      vertex 3.090933677959249 1.004305231718579 6
    endloop
  endfacet
  facet normal 0.9624552364536473 0.271440449865074 0
    outer loop
      vertex 3.1602022412924486 0.7586974325316925 8
      vertex 3.090933677959249 1.004305231718579 6
      vertex 3.090933677959249 1.004305231718579 8
    endloop
  endfacet
  facet normal 0.9807852804032301 0.19509032201613047 0
    outer loop
      vertex 3.209987106934198 0.5084120113807503 8
      vertex 3.209987106934198 0.5084120113807503 6
      vertex 3.1602022412924486 0.7586974325316925 6
    endloop
  endfacet
  facet normal 0.9807852804032301 0.19509032201613047 0
    outer loop
      vertex 3.209987106934198 0.5084120113807503 8
      vertex 3.1602022412924486 0.7586974325316925 6
      vertex 3.1602022412924486 0.7586974325316925 8
    endloop
  endfacet
  facet normal 0.9381913359224845 0.3461170570774922 0
    outer loop
      vertex 3.090933677959249 1.004305231718579 8
      vertex 3.090933677959249 1.004305231718579 6
      vertex 3.002608480661682 1.2437211551865417 6
    endloop
  endfacet
  facet normal 0.9381913359224845 0.3461170570774922 0
    outer loop
      vertex 3.002608480661682 1.2437211551865417 8
      vertex 3.090933677959249 1.004305231718579 8
      vertex 3.002608480661682 1.2437211551865417 6
    endloop
  endfacet
  facet normal 0.9081431738250817 0.4186597375374272 0
    outer loop
      vertex 3.002608480661682 1.2437211551865417 8
      vertex 3.002608480661682 1.2437211551865417 6
      vertex 2.895771203612196 1.475469124153527 6
    endloop
  endfacet
  facet normal 0.9081431738250817 0.4186597375374272 0
    outer loop
      vertex 3.002608480661682 1.2437211551865417 8
      vertex 2.895771203612196 1.475469124153527 6
      vertex 2.895771203612196 1.475469124153527 8
    endloop
  endfacet
  facet normal 0.8724960070727964 0.48862124149695624 0
    outer loop
      vertex 2.895771203612196 1.475469124153527 8
      vertex 2.895771203612196 1.475469124153527 6
      vertex 2.7710805341507996 1.6981203353268337 6
    endloop
  endfacet
  facet normal 0.8724960070727964 0.48862124149695624 0
    outer loop
      vertex 2.895771203612196 1.475469124153527 8
      vertex 2.7710805341507996 1.6981203353268337 6
      vertex 2.7710805341507996 1.6981203353268337 8
    endloop
  endfacet
  facet normal 0.8314696123025456 0.555570233019602 0
    outer loop
      vertex 2.7710805341507996 1.6981203353268337 8
      vertex 2.7710805341507996 1.6981203353268337 6
      vertex 2.629305231718579 1.9103020699505378 6
    endloop
  endfacet
  facet normal 0.7853169308807448 0.6190939493098341 0
    outer loop
      vertex 2.629305231718579 1.9103020699505378 6
      vertex 2.558593085353723 2 6
      vertex 2.558593085353723 2 8
    endloop
  endfacet
  facet normal 0.8314696123025456 0.555570233019602 0
    outer loop
      vertex 2.7710805341507996 1.6981203353268337 8
      vertex 2.629305231718579 1.9103020699505378 6
      vertex 2.629305231718579 1.9103020699505378 8
    endloop
  endfacet
  facet normal 0.7853169308807448 0.6190939493098341 0
    outer loop
      vertex 2.558593085353723 2 8
      vertex 2.629305231718579 1.9103020699505378 8
      vertex 2.629305231718579 1.9103020699505378 6
    endloop
  endfacet
  facet normal 0 -1 0
    outer loop
      vertex -2.558593085353723 -2 6
      vertex 2.558593085353723 -2 6
      vertex -2.558593085353723 -2 8
    endloop
  endfacet
  facet normal 0 1 0
    outer loop
      vertex -2.558593085353723 2 8
      vertex 2.558593085353723 2 8
      vertex -2.558593085353723 2 6
    endloop
  endfacet
  facet normal 0 -1 0
    outer loop
      vertex 2.558593085353723 -2 6
      vertex 2.558593085353723 -2 8
      vertex -2.558593085353723 -2 8
    endloop
  endfacet
  facet normal 0 1 0
    outer loop
      vertex 2.558593085353723 2 8
      vertex 2.558593085353723 2 6
      vertex -2.558593085353723 2 6
    endloop
  endfacet
  facet normal 0 0 -1
    outer loop
      vertex -5.025 -2 8
      vertex -3.209987106934198 -0.5084120113807503 8
      vertex -3.1602022412924486 -0.7586974325316925 8
    endloop
  endfacet
  facet normal 0 0 -1
    outer loop
      vertex -5.025 -2 8
      vertex -2.7710805341507996 -1.6981203353268337 8
      vertex -2.629305231718579 -1.9103020699505378 8
    endloop
  endfacet
  facet normal 0 0 -1
    outer loop
      vertex -5.025 -2 8
      vertex -2.629305231718579 -1.9103020699505378 8
      vertex -2.558593085353723 -2 8
    endloop
  endfacet
  facet normal 0 0 -1
    outer loop
      vertex -5.025 -2 8
      vertex -2.895771203612196 -1.475469124153527 8
      vertex -2.7710805341507996 -1.6981203353268337 8
    endloop
  endfacet
  facet normal 0 0 -1
    outer loop
      vertex -5.025 -2 8
      vertex -3.002608480661682 -1.2437211551865417 8
      vertex -2.895771203612196 -1.475469124153527 8
    endloop
  endfacet
  facet normal 0 0 -1
    outer loop
      vertex -5.025 -2 8
      vertex -3.090933677959249 -1.004305231718579 8
      vertex -3.002608480661682 -1.2437211551865417 8
    endloop
  endfacet
  facet normal 0 0 -1
    outer loop
      vertex -5.025 -2 8
      vertex -3.1602022412924486 -0.7586974325316925 8
      vertex -3.090933677959249 -1.004305231718579 8
    endloop
  endfacet
  facet normal 0 0 -1
    outer loop
      vertex -5.025 -2 8
      vertex -3.239981334632666 -0.25499206111549605 8
      vertex -3.209987106934198 -0.5084120113807503 8
    endloop
  endfacet
  facet normal 0 0 -1
    outer loop
      vertex -5.025 -2 8
      vertex -5.025 2 8
      vertex -3.239981334632666 -0.25499206111549605 8
    endloop
  endfacet
  facet normal -1 0 0
    outer loop
      vertex -5.025 -2 8
      vertex -5.025 -2 10
      vertex -5.025 2 10
    endloop
  endfacet
  facet normal 0 -1 0
    outer loop
      vertex -5.025 -2 8
      vertex -2.558593085353723 -2 8
      vertex 3.525 -2 27.5
    endloop
  endfacet
  facet normal -0.8658487179917636 -0.49477069599529366 0.07421560439929405
    outer loop
      vertex -5.025 -2 10
      vertex -3.525 -2 27.5
      vertex -4.525 -0.25 27.5
    endloop
  endfacet
  facet normal -0.9995920864606946 0 0.02855977389887699
    outer loop
      vertex -5.025 -2 10
      vertex -4.525 -0.25 27.5
      vertex -5.025 2 10
    endloop
  endfacet
  facet normal 0 -1 0
    outer loop
      vertex -5.025 -2 8
      vertex 3.525 -2 27.5
      vertex -5.025 -2 10
    endloop
  endfacet
  facet normal 0 -1 0
    outer loop
      vertex -5.025 -2 10
      vertex 3.525 -2 27.5
      vertex -3.525 -2 27.5
    endloop
  endfacet
  facet normal 0 0 1
    outer loop
      vertex -3.525 -2 27.5
      vertex 4.525 0.25 27.5
      vertex -4.525 -0.25 27.5
    endloop
  endfacet
  facet normal 0 0 -1
    outer loop
      vertex -5.025 2 8
      vertex -3.25 0 8
      vertex -3.239981334632666 -0.25499206111549605 8
    endloop
  endfacet
  facet normal 0 0 -1
    outer loop
      vertex -5.025 2 8
      vertex -3.239981334632666 0.25499206111549605 8
      vertex -3.25 0 8
    endloop
  endfacet
  facet normal 0 0 -1
    outer loop
      vertex -5.025 2 8
      vertex -3.209987106934198 0.5084120113807503 8
      vertex -3.239981334632666 0.25499206111549605 8
    endloop
  endfacet
  facet normal -1 0 0
    outer loop
      vertex -5.025 -2 8
      vertex -5.025 2 10
      vertex -5.025 2 8
    endloop
  endfacet
  facet normal 0 0 -1
    outer loop
      vertex -5.025 2 8
      vertex -3.1602022412924486 0.7586974325316925 8
      vertex -3.209987106934198 0.5084120113807503 8
    endloop
  endfacet
  facet normal 0 0 -1
    outer loop
      vertex -5.025 2 8
      vertex -3.090933677959249 1.004305231718579 8
      vertex -3.1602022412924486 0.7586974325316925 8
    endloop
  endfacet
  facet normal 0 0 -1
    outer loop
      vertex -5.025 2 8
      vertex -3.002608480661682 1.2437211551865417 8
      vertex -3.090933677959249 1.004305231718579 8
    endloop
  endfacet
  facet normal 0 0 -1
    outer loop
      vertex -5.025 2 8
      vertex -2.895771203612196 1.475469124153527 8
      vertex -3.002608480661682 1.2437211551865417 8
    endloop
  endfacet
  facet normal 0 0 -1
    outer loop
      vertex -5.025 2 8
      vertex -2.7710805341507996 1.6981203353268337 8
      vertex -2.895771203612196 1.475469124153527 8
    endloop
  endfacet
  facet normal 0 0 -1
    outer loop
      vertex -5.025 2 8
      vertex -2.629305231718579 1.9103020699505378 8
      vertex -2.7710805341507996 1.6981203353268337 8
    endloop
  endfacet
  facet normal 0 0 -1
    outer loop
      vertex -5.025 2 8
      vertex -2.558593085353723 2 8
      vertex -2.629305231718579 1.9103020699505378 8
    endloop
  endfacet
  facet normal 0 1 0
    outer loop
      vertex -5.025 2 8
      vertex -5.025 2 10
      vertex -2.558593085353723 2 8
    endloop
  endfacet
  facet normal 0 1 0
    outer loop
      vertex -5.025 2 10
      vertex 2.558593085353723 2 8
      vertex -2.558593085353723 2 8
    endloop
  endfacet
  facet normal -0.9995920864606946 0 0.02855977389887699
    outer loop
      vertex -4.525 -0.25 27.5
      vertex -4.525 0.25 27.5
      vertex -5.025 2 10
    endloop
  endfacet
  facet normal -0.8658487179917636 0.49477069599529366 0.07421560439929405
    outer loop
      vertex -5.025 2 10
      vertex -4.525 0.25 27.5
      vertex -3.525 2 27.5
    endloop
  endfacet
  facet normal 0 0 1
    outer loop
      vertex -4.525 -0.25 27.5
      vertex 4.525 0.25 27.5
      vertex -4.525 0.25 27.5
    endloop
  endfacet
  facet normal 0 0 1
    outer loop
      vertex -4.525 0.25 27.5
      vertex 4.525 0.25 27.5
      vertex -3.525 2 27.5
    endloop
  endfacet
  facet normal 0 1 0
    outer loop
      vertex -5.025 2 10
      vertex -3.525 2 27.5
      vertex 3.525 2 27.5
    endloop
  endfacet
  facet normal 0 -1 0
    outer loop
      vertex 3.525 -2 27.5
      vertex -2.558593085353723 -2 8
      vertex 2.558593085353723 -2 8
    endloop
  endfacet
  facet normal 0 0 -1
    outer loop
      vertex 5.025 -2 8
      vertex 2.558593085353723 -2 8
      vertex 2.629305231718579 -1.9103020699505378 8
    endloop
  endfacet
  facet normal 0 0 -1
    outer loop
      vertex 5.025 -2 8
      vertex 2.629305231718579 -1.9103020699505378 8
      vertex 2.7710805341507996 -1.6981203353268337 8
    endloop
  endfacet
  facet normal 0 0 -1
    outer loop
      vertex 5.025 -2 8
      vertex 2.7710805341507996 -1.6981203353268337 8
      vertex 2.895771203612196 -1.475469124153527 8
    endloop
  endfacet
  facet normal 0 0 -1
    outer loop
      vertex 5.025 -2 8
      vertex 2.895771203612196 -1.475469124153527 8
      vertex 3.002608480661682 -1.2437211551865417 8
    endloop
  endfacet
  facet normal 0 0 -1
    outer loop
      vertex 5.025 -2 8
      vertex 3.002608480661682 -1.2437211551865417 8
      vertex 3.090933677959249 -1.004305231718579 8
    endloop
  endfacet
  facet normal 0 0 -1
    outer loop
      vertex 5.025 -2 8
      vertex 3.090933677959249 -1.004305231718579 8
      vertex 3.1602022412924486 -0.7586974325316925 8
    endloop
  endfacet
  facet normal 0 0 -1
    outer loop
      vertex 5.025 -2 8
      vertex 3.1602022412924486 -0.7586974325316925 8
      vertex 3.209987106934198 -0.5084120113807503 8
    endloop
  endfacet
  facet normal 0 -1 0
    outer loop
      vertex 2.558593085353723 -2 8
      vertex 5.025 -2 8
      vertex 3.525 -2 27.5
    endloop
  endfacet
  facet normal 0 0 -1
    outer loop
      vertex 5.025 -2 8
      vertex 3.209987106934198 -0.5084120113807503 8
      vertex 3.239981334632666 -0.25499206111549605 8
    endloop
  endfacet
  facet normal 0 0 -1
    outer loop
      vertex 5.025 -2 8
      vertex 3.239981334632666 -0.25499206111549605 8
      vertex 3.25 0 8
    endloop
  endfacet
  facet normal 0 0 -1
    outer loop
      vertex 5.025 -2 8
      vertex 3.25 0 8
      vertex 3.239981334632666 0.25499206111549605 8
    endloop
  endfacet
  facet normal 1 0 0
    outer loop
      vertex 5.025 -2 8
      vertex 5.025 2 8
      vertex 5.025 -2 10
    endloop
  endfacet
  facet normal 0 0 1
    outer loop
      vertex -3.525 -2 27.5
      vertex 3.525 -2 27.5
      vertex 4.525 0.25 27.5
    endloop
  endfacet
  facet normal 0 -1 0
    outer loop
      vertex 5.025 -2 8
      vertex 5.025 -2 10
      vertex 3.525 -2 27.5
    endloop
  endfacet
  facet normal 0.8658487179917636 -0.49477069599529366 0.07421560439929405
    outer loop
      vertex 5.025 -2 10
      vertex 4.525 -0.25 27.5
      vertex 3.525 -2 27.5
    endloop
  endfacet
  facet normal 0.9995920864606946 0 0.02855977389887699
    outer loop
      vertex 5.025 -2 10
      vertex 4.525 0.25 27.5
      vertex 4.525 -0.25 27.5
    endloop
  endfacet
  facet normal 0 0 1
    outer loop
      vertex 3.525 -2 27.5
      vertex 4.525 -0.25 27.5
      vertex 4.525 0.25 27.5
    endloop
  endfacet
  facet normal 0 1 0
    outer loop
      vertex -5.025 2 10
      vertex 5.025 2 8
      vertex 2.558593085353723 2 8
    endloop
  endfacet
  facet normal 0 1 0
    outer loop
      vertex -5.025 2 10
      vertex 5.025 2 10
      vertex 5.025 2 8
    endloop
  endfacet
  facet normal 0 0 -1
    outer loop
      vertex 5.025 -2 8
      vertex 3.239981334632666 0.25499206111549605 8
      vertex 5.025 2 8
    endloop
  endfacet
  facet normal 0 0 -1
    outer loop
      vertex 5.025 2 8
      vertex 3.239981334632666 0.25499206111549605 8
      vertex 3.209987106934198 0.5084120113807503 8
    endloop
  endfacet
  facet normal 1 0 0
    outer loop
      vertex 5.025 -2 10
      vertex 5.025 2 8
      vertex 5.025 2 10
    endloop
  endfacet
  facet normal 0 0 -1
    outer loop
      vertex 5.025 2 8
      vertex 3.1602022412924486 0.7586974325316925 8
      vertex 3.090933677959249 1.004305231718579 8
    endloop
  endfacet
  facet normal 0 0 -1
    outer loop
      vertex 5.025 2 8
      vertex 3.090933677959249 1.004305231718579 8
      vertex 3.002608480661682 1.2437211551865417 8
    endloop
  endfacet
  facet normal 0 0 -1
    outer loop
      vertex 5.025 2 8
      vertex 3.002608480661682 1.2437211551865417 8
      vertex 2.895771203612196 1.475469124153527 8
    endloop
  endfacet
  facet normal 0 0 -1
    outer loop
      vertex 5.025 2 8
      vertex 2.895771203612196 1.475469124153527 8
      vertex 2.7710805341507996 1.6981203353268337 8
    endloop
  endfacet
  facet normal 0 0 -1
    outer loop
      vertex 5.025 2 8
      vertex 2.629305231718579 1.9103020699505378 8
      vertex 2.558593085353723 2 8
    endloop
  endfacet
  facet normal 0 0 -1
    outer loop
      vertex 5.025 2 8
      vertex 2.7710805341507996 1.6981203353268337 8
      vertex 2.629305231718579 1.9103020699505378 8
    endloop
  endfacet
  facet normal 0 0 -1
    outer loop
      vertex 5.025 2 8
      vertex 3.209987106934198 0.5084120113807503 8
      vertex 3.1602022412924486 0.7586974325316925 8
    endloop
  endfacet
  facet normal 0 1 0
    outer loop
      vertex -5.025 2 10
      vertex 3.525 2 27.5
      vertex 5.025 2 10
    endloop
  endfacet
  facet normal 0 0 1
    outer loop
      vertex -3.525 2 27.5
      vertex 4.525 0.25 27.5
      vertex 3.525 2 27.5
    endloop
  endfacet
  facet normal 0.9995920864606946 0 0.02855977389887699
    outer loop
      vertex 5.025 -2 10
      vertex 5.025 2 10
      vertex 4.525 0.25 27.5
    endloop
  endfacet
  facet normal 0.8658487179917636 0.49477069599529366 0.07421560439929405
    outer loop
      vertex 5.025 2 10
      vertex 3.525 2 27.5
      vertex 4.525 0.25 27.5
    endloop
  endfacet
endsolid OpenSCAD_Model
